<svg width="220" height="60" viewBox="0 0 220 60" xmlns="http://www.w3.org/2000/svg">
  <defs>
    <linearGradient id="logoGradient" x1="0%" y1="0%" x2="100%" y2="0%">
      <stop offset="0%" style="stop-color:#667eea;stop-opacity:1" />
      <stop offset="100%" style="stop-color:#764ba2;stop-opacity:1" />
    </linearGradient>
  </defs>
  
  <!-- Icon/Logo Symbol - Modern Code brackets -->
  <g transform="translate(8, 12)">
    <!-- Left bracket - Modern style -->
    <path d="M 0 18 L 0 6 Q 0 0 6 0 L 10 0 Q 14 0 14 4 L 14 10 Q 14 14 10 14 L 6 14 Q 4 14 4 18 L 4 22 Q 4 26 6 26 L 10 26 Q 14 26 14 30 L 14 36 Q 14 40 10 40 L 6 40 Q 0 40 0 34 L 0 18 Z" fill="url(#logoGradient)"/>
    
    <!-- Right bracket -->
    <path d="M 24 18 L 24 6 Q 24 0 18 0 L 14 0 Q 10 0 10 4 L 10 10 Q 10 14 14 14 L 18 14 Q 20 14 20 18 L 20 22 Q 20 26 18 26 L 14 26 Q 10 26 10 30 L 10 36 Q 10 40 14 40 L 18 40 Q 24 40 24 34 L 24 18 Z" fill="url(#logoGradient)"/>
    
    <!-- Center element representing code/globe -->
    <circle cx="12" cy="20" r="4" fill="url(#logoGradient)"/>
    <path d="M 8 20 Q 12 16 16 20 Q 12 24 8 20" fill="url(#logoGradient)" opacity="0.6"/>
  </g>
  
  <!-- Company Name Text -->
  <text x="45" y="38" font-family="'Inter', -apple-system, BlinkMacSystemFont, 'Segoe UI', sans-serif" font-size="22" font-weight="700" fill="#1a202c" letter-spacing="-0.5px">
    Programmingglore
  </text>
</svg>
